<svg xmlns="http://www.w3.org/2000/svg" width="280" height="140" fill="none" viewBox="0 0 280 140"><rect width="280" height="140" fill="#fff"/><rect width="280" height="140" fill="#F4F5F7"/><g filter="url(#filter0_dd)"><rect width="68" height="68" x="30" y="49" fill="#fff" rx="4"/><rect width="69" height="69" x="29.5" y="48.5" stroke="#000" stroke-opacity=".04" rx="4.5"/></g><g filter="url(#filter1_dd)"><rect width="68" height="68" x="106" y="49" fill="#fff" rx="4"/><rect width="69" height="69" x="105.5" y="48.5" stroke="#000" stroke-opacity=".04" rx="4.5"/></g><g filter="url(#filter2_dd)"><rect width="68" height="68" x="182" y="49" fill="#fff" rx="4"/><rect width="69" height="69" x="181.5" y="48.5" stroke="#000" stroke-opacity=".04" rx="4.5"/></g><rect width="44" height="2" x="112" y="89" fill="#6B7280" rx="1"/><rect width="44" height="2" x="188" y="89" fill="#6B7280" rx="1"/><rect width="56" height="2" x="112" y="94" fill="#D2D6DC" rx="1"/><rect width="56" height="2" x="188" y="94" fill="#D2D6DC" rx="1"/><rect width="52" height="2" x="112" y="99" fill="#D2D6DC" rx="1"/><rect width="52" height="2" x="188" y="99" fill="#D2D6DC" rx="1"/><rect width="39" height="2" x="112" y="104" fill="#D2D6DC" rx="1"/><rect width="39" height="2" x="188" y="104" fill="#D2D6DC" rx="1"/><rect width="7" height="2" x="112" y="109" fill="#9FA6B2" rx="1"/><rect width="7" height="2" x="188" y="109" fill="#9FA6B2" rx="1"/><path fill="#E5E7EB" d="M30 52C30 50.3431 31.3431 49 33 49H95C96.6569 49 98 50.3431 98 52V83H30V52Z"/><path fill="#E5E7EB" d="M106 52C106 50.3431 107.343 49 109 49H171C172.657 49 174 50.3431 174 52V83H106V52Z"/><path fill="#E5E7EB" d="M182 52C182 50.3431 183.343 49 185 49H247C248.657 49 250 50.3431 250 52V83H182V52Z"/><rect width="44" height="2" x="36" y="89" fill="#6B7280" rx="1"/><rect width="56" height="2" x="36" y="94" fill="#D2D6DC" rx="1"/><rect width="52" height="2" x="36" y="99" fill="#D2D6DC" rx="1"/><rect width="39" height="2" x="36" y="104" fill="#D2D6DC" rx="1"/><rect width="7" height="2" x="36" y="109" fill="#9FA6B2" rx="1"/><rect width="76" height="3" x="103" y="23" fill="#6B7280" rx="1.5"/><rect width="111" height="2" x="85" y="30" fill="#D2D6DC" rx="1"/><rect width="100" height="2" x="91" y="35" fill="#D2D6DC" rx="1"/><defs><filter id="filter0_dd" width="80" height="80" x="24" y="46" color-interpolation-filters="sRGB" filterUnits="userSpaceOnUse"><feFlood flood-opacity="0" result="BackgroundImageFix"/><feColorMatrix in="SourceAlpha" type="matrix" values="0 0 0 0 0 0 0 0 0 0 0 0 0 0 0 0 0 0 127 0"/><feOffset dy="3"/><feGaussianBlur stdDeviation="2.5"/><feColorMatrix type="matrix" values="0 0 0 0 0 0 0 0 0 0 0 0 0 0 0 0 0 0 0.04 0"/><feBlend in2="BackgroundImageFix" mode="normal" result="effect1_dropShadow"/><feColorMatrix in="SourceAlpha" type="matrix" values="0 0 0 0 0 0 0 0 0 0 0 0 0 0 0 0 0 0 127 0"/><feOffset dy="1"/><feGaussianBlur stdDeviation="1"/><feColorMatrix type="matrix" values="0 0 0 0 0 0 0 0 0 0 0 0 0 0 0 0 0 0 0.03 0"/><feBlend in2="effect1_dropShadow" mode="normal" result="effect2_dropShadow"/><feBlend in="SourceGraphic" in2="effect2_dropShadow" mode="normal" result="shape"/></filter><filter id="filter1_dd" width="80" height="80" x="100" y="46" color-interpolation-filters="sRGB" filterUnits="userSpaceOnUse"><feFlood flood-opacity="0" result="BackgroundImageFix"/><feColorMatrix in="SourceAlpha" type="matrix" values="0 0 0 0 0 0 0 0 0 0 0 0 0 0 0 0 0 0 127 0"/><feOffset dy="3"/><feGaussianBlur stdDeviation="2.5"/><feColorMatrix type="matrix" values="0 0 0 0 0 0 0 0 0 0 0 0 0 0 0 0 0 0 0.04 0"/><feBlend in2="BackgroundImageFix" mode="normal" result="effect1_dropShadow"/><feColorMatrix in="SourceAlpha" type="matrix" values="0 0 0 0 0 0 0 0 0 0 0 0 0 0 0 0 0 0 127 0"/><feOffset dy="1"/><feGaussianBlur stdDeviation="1"/><feColorMatrix type="matrix" values="0 0 0 0 0 0 0 0 0 0 0 0 0 0 0 0 0 0 0.03 0"/><feBlend in2="effect1_dropShadow" mode="normal" result="effect2_dropShadow"/><feBlend in="SourceGraphic" in2="effect2_dropShadow" mode="normal" result="shape"/></filter><filter id="filter2_dd" width="80" height="80" x="176" y="46" color-interpolation-filters="sRGB" filterUnits="userSpaceOnUse"><feFlood flood-opacity="0" result="BackgroundImageFix"/><feColorMatrix in="SourceAlpha" type="matrix" values="0 0 0 0 0 0 0 0 0 0 0 0 0 0 0 0 0 0 127 0"/><feOffset dy="3"/><feGaussianBlur stdDeviation="2.5"/><feColorMatrix type="matrix" values="0 0 0 0 0 0 0 0 0 0 0 0 0 0 0 0 0 0 0.04 0"/><feBlend in2="BackgroundImageFix" mode="normal" result="effect1_dropShadow"/><feColorMatrix in="SourceAlpha" type="matrix" values="0 0 0 0 0 0 0 0 0 0 0 0 0 0 0 0 0 0 127 0"/><feOffset dy="1"/><feGaussianBlur stdDeviation="1"/><feColorMatrix type="matrix" values="0 0 0 0 0 0 0 0 0 0 0 0 0 0 0 0 0 0 0.03 0"/><feBlend in2="effect1_dropShadow" mode="normal" result="effect2_dropShadow"/><feBlend in="SourceGraphic" in2="effect2_dropShadow" mode="normal" result="shape"/></filter></defs></svg>