<svg xmlns="http://www.w3.org/2000/svg" width="280" height="140" fill="none" viewBox="0 0 280 140"><rect width="280" height="140" fill="#fff"/><rect width="280" height="140" fill="#F4F5F7"/><g filter="url(#filter0_dd)"><path fill="#fff" d="M98 53C98 50.7909 99.7909 49 102 49H178C180.209 49 182 50.7909 182 53V105C182 107.209 180.209 109 178 109H102C99.7909 109 98 107.209 98 105V53Z"/><path stroke="#000" stroke-opacity=".04" d="M102 48.5C99.5147 48.5 97.5 50.5147 97.5 53V105C97.5 107.485 99.5147 109.5 102 109.5H178C180.485 109.5 182.5 107.485 182.5 105V53C182.5 50.5147 180.485 48.5 178 48.5H102Z"/></g><path fill="#E5E7EB" d="M132 33C132 30.7909 133.791 29 136 29H178C180.209 29 182 30.7909 182 33V41C182 43.2091 180.209 45 178 45H136C133.791 45 132 43.2091 132 41V33Z"/><path stroke="#6B7280" stroke-linecap="round" stroke-linejoin="round" d="M175 36L173 38L171 36"/><rect width="21" height="2" x="143" y="36" fill="#6B7280" rx="1"/><rect width="38" height="2" x="119" y="60" fill="#9FA6B2" rx="1"/><circle cx="110" cy="61" r="3" fill="#C4C4C4"/><rect width="36" height="2" x="119" y="72" fill="#9FA6B2" rx="1"/><circle cx="110" cy="73" r="3" fill="#C4C4C4"/><rect width="48" height="2" x="119" y="84" fill="#9FA6B2" rx="1"/><circle cx="110" cy="85" r="3" fill="#C4C4C4"/><rect width="41" height="2" x="119" y="96" fill="#9FA6B2" rx="1"/><circle cx="110" cy="97" r="3" fill="#C4C4C4"/><defs><filter id="filter0_dd" width="96" height="72" x="92" y="46" color-interpolation-filters="sRGB" filterUnits="userSpaceOnUse"><feFlood flood-opacity="0" result="BackgroundImageFix"/><feColorMatrix in="SourceAlpha" type="matrix" values="0 0 0 0 0 0 0 0 0 0 0 0 0 0 0 0 0 0 127 0"/><feOffset dy="3"/><feGaussianBlur stdDeviation="2.5"/><feColorMatrix type="matrix" values="0 0 0 0 0 0 0 0 0 0 0 0 0 0 0 0 0 0 0.04 0"/><feBlend in2="BackgroundImageFix" mode="normal" result="effect1_dropShadow"/><feColorMatrix in="SourceAlpha" type="matrix" values="0 0 0 0 0 0 0 0 0 0 0 0 0 0 0 0 0 0 127 0"/><feOffset dy="1"/><feGaussianBlur stdDeviation="1"/><feColorMatrix type="matrix" values="0 0 0 0 0 0 0 0 0 0 0 0 0 0 0 0 0 0 0.03 0"/><feBlend in2="effect1_dropShadow" mode="normal" result="effect2_dropShadow"/><feBlend in="SourceGraphic" in2="effect2_dropShadow" mode="normal" result="shape"/></filter></defs></svg>