<svg xmlns="http://www.w3.org/2000/svg" width="280" height="140" fill="none" viewBox="0 0 280 140"><rect width="280" height="140" fill="#fff"/><rect width="280" height="140" fill="#fff"/><rect width="76" height="3" x="102" y="35" fill="#6B7280" rx="1.5"/><rect width="111" height="2" x="84" y="42" fill="#D2D6DC" rx="1"/><rect width="100" height="2" x="90" y="47" fill="#D2D6DC" rx="1"/><rect width="44" height="2" x="30" y="85" fill="#9FA6B2" rx="1"/><rect width="64" height="2" x="30" y="91" fill="#D2D6DC" rx="1"/><rect width="60" height="2" x="30" y="96" fill="#D2D6DC" rx="1"/><rect width="39" height="2" x="30" y="101" fill="#D2D6DC" rx="1"/><rect width="12" height="12" x="110" y="65" fill="#D2D6DC" rx="3"/><rect width="12" height="12" x="30" y="65" fill="#D2D6DC" rx="3"/><rect width="44" height="2" x="110" y="85" fill="#9FA6B2" rx="1"/><rect width="56" height="2" x="110" y="91" fill="#D2D6DC" rx="1"/><rect width="60" height="2" x="110" y="96" fill="#D2D6DC" rx="1"/><rect width="47" height="2" x="110" y="101" fill="#D2D6DC" rx="1"/><rect width="12" height="12" x="190" y="65" fill="#D2D6DC" rx="3"/><rect width="44" height="2" x="190" y="85" fill="#9FA6B2" rx="1"/><rect width="56" height="2" x="190" y="91" fill="#D2D6DC" rx="1"/><rect width="52" height="2" x="190" y="96" fill="#D2D6DC" rx="1"/><rect width="57" height="2" x="190" y="101" fill="#D2D6DC" rx="1"/></svg>