<svg xmlns="http://www.w3.org/2000/svg" width="280" height="140" fill="none" viewBox="0 0 280 140"><rect width="280" height="140" fill="#fff"/><rect width="280" height="140" fill="#F4F5F7"/><mask id="mask0" width="280" height="140" x="0" y="0" mask-type="alpha" maskUnits="userSpaceOnUse"><rect width="280" height="140" fill="#F4F5F7"/></mask><g mask="url(#mask0)"><g filter="url(#filter0_dd)"><rect width="280" height="96" y="44" fill="#fff"/><rect width="281" height="97" x="-.5" y="43.5" stroke="#000" stroke-opacity=".04"/></g><rect width="18" height="2" x="20" y="64" fill="#9FA6B2" rx="1"/><rect width="16" height="2" x="20" y="72" fill="#D2D6DC" rx="1"/><rect width="18" height="2" x="20" y="80" fill="#D2D6DC" rx="1"/><rect width="12" height="2" x="20" y="88" fill="#D2D6DC" rx="1"/><rect width="16" height="2" x="20" y="96" fill="#D2D6DC" rx="1"/><rect width="32" height="2" x="20" y="117" fill="#D2D6DC" rx="1"/><rect width="18" height="2" x="60" y="64" fill="#9FA6B2" rx="1"/><rect width="16" height="2" x="60" y="72" fill="#D2D6DC" rx="1"/><rect width="18" height="2" x="60" y="80" fill="#D2D6DC" rx="1"/><rect width="12" height="2" x="60" y="88" fill="#D2D6DC" rx="1"/><rect width="16" height="2" x="60" y="96" fill="#D2D6DC" rx="1"/><rect width="18" height="2" x="100" y="64" fill="#9FA6B2" rx="1"/><rect width="16" height="2" x="100" y="72" fill="#D2D6DC" rx="1"/><rect width="18" height="2" x="100" y="80" fill="#D2D6DC" rx="1"/><rect width="12" height="2" x="100" y="88" fill="#D2D6DC" rx="1"/><rect width="16" height="2" x="100" y="96" fill="#D2D6DC" rx="1"/><rect width="18" height="2" x="140" y="64" fill="#9FA6B2" rx="1"/><rect width="16" height="2" x="140" y="72" fill="#D2D6DC" rx="1"/><rect width="18" height="2" x="140" y="80" fill="#D2D6DC" rx="1"/><rect width="12" height="2" x="140" y="88" fill="#D2D6DC" rx="1"/><rect width="16" height="2" x="140" y="96" fill="#D2D6DC" rx="1"/><rect width="240" height="1" x="20" y="109" fill="#E5E7EB"/><rect width="18" height="2" x="180" y="64" fill="#9FA6B2" rx="1"/><rect width="74" height="2" x="180" y="72" fill="#D2D6DC" rx="1"/><rect width="67" height="2" x="180" y="77" fill="#D2D6DC" rx="1"/><g filter="url(#filter1_d)"><rect width="53" height="8" x="180" y="85" fill="#fff" rx="2"/><rect width="54" height="9" x="179.5" y="84.5" stroke="#000" stroke-opacity=".08" rx="2.5"/></g><g filter="url(#filter2_dd)"><path fill="#4B5563" d="M236 87C236 85.3431 237.343 84 239 84H257C258.657 84 260 85.3431 260 87V91C260 92.6569 258.657 94 257 94H239C237.343 94 236 92.6569 236 91V87Z"/></g><circle cx="221" cy="118" r="3" fill="#D2D6DC"/><circle cx="233" cy="118" r="3" fill="#D2D6DC"/><circle cx="245" cy="118" r="3" fill="#D2D6DC"/><circle cx="257" cy="118" r="3" fill="#D2D6DC"/></g><defs><filter id="filter0_dd" width="292" height="108" x="-6" y="41" color-interpolation-filters="sRGB" filterUnits="userSpaceOnUse"><feFlood flood-opacity="0" result="BackgroundImageFix"/><feColorMatrix in="SourceAlpha" type="matrix" values="0 0 0 0 0 0 0 0 0 0 0 0 0 0 0 0 0 0 127 0"/><feOffset dy="3"/><feGaussianBlur stdDeviation="2.5"/><feColorMatrix type="matrix" values="0 0 0 0 0 0 0 0 0 0 0 0 0 0 0 0 0 0 0.04 0"/><feBlend in2="BackgroundImageFix" mode="normal" result="effect1_dropShadow"/><feColorMatrix in="SourceAlpha" type="matrix" values="0 0 0 0 0 0 0 0 0 0 0 0 0 0 0 0 0 0 127 0"/><feOffset dy="1"/><feGaussianBlur stdDeviation="1"/><feColorMatrix type="matrix" values="0 0 0 0 0 0 0 0 0 0 0 0 0 0 0 0 0 0 0.03 0"/><feBlend in2="effect1_dropShadow" mode="normal" result="effect2_dropShadow"/><feBlend in="SourceGraphic" in2="effect2_dropShadow" mode="normal" result="shape"/></filter><filter id="filter1_d" width="59" height="14" x="177" y="83" color-interpolation-filters="sRGB" filterUnits="userSpaceOnUse"><feFlood flood-opacity="0" result="BackgroundImageFix"/><feColorMatrix in="SourceAlpha" type="matrix" values="0 0 0 0 0 0 0 0 0 0 0 0 0 0 0 0 0 0 127 0"/><feOffset dy="1"/><feGaussianBlur stdDeviation="1"/><feColorMatrix type="matrix" values="0 0 0 0 0 0 0 0 0 0 0 0 0 0 0 0 0 0 0.04 0"/><feBlend in2="BackgroundImageFix" mode="normal" result="effect1_dropShadow"/><feBlend in="SourceGraphic" in2="effect1_dropShadow" mode="normal" result="shape"/></filter><filter id="filter2_dd" width="30" height="16" x="233" y="82" color-interpolation-filters="sRGB" filterUnits="userSpaceOnUse"><feFlood flood-opacity="0" result="BackgroundImageFix"/><feColorMatrix in="SourceAlpha" type="matrix" values="0 0 0 0 0 0 0 0 0 0 0 0 0 0 0 0 0 0 127 0"/><feOffset dy="1"/><feGaussianBlur stdDeviation="1"/><feColorMatrix type="matrix" values="0 0 0 0 0 0 0 0 0 0 0 0 0 0 0 0 0 0 0.06 0"/><feBlend in2="BackgroundImageFix" mode="normal" result="effect1_dropShadow"/><feColorMatrix in="SourceAlpha" type="matrix" values="0 0 0 0 0 0 0 0 0 0 0 0 0 0 0 0 0 0 127 0"/><feOffset dy="1"/><feGaussianBlur stdDeviation="1.5"/><feColorMatrix type="matrix" values="0 0 0 0 0 0 0 0 0 0 0 0 0 0 0 0 0 0 0.1 0"/><feBlend in2="effect1_dropShadow" mode="normal" result="effect2_dropShadow"/><feBlend in="SourceGraphic" in2="effect2_dropShadow" mode="normal" result="shape"/></filter></defs></svg>