<svg xmlns="http://www.w3.org/2000/svg" width="280" height="140" fill="none" viewBox="0 0 280 140"><rect width="280" height="140" fill="#fff"/><rect width="280" height="140" fill="#F4F5F7"/><rect width="68" height="2" x="30" y="28" fill="#D2D6DC" rx="1"/><rect width="58" height="2" x="30" y="32" fill="#D2D6DC" rx="1"/><rect width="28" height="3" x="30" y="22" fill="#6B7280" rx="1.5"/><rect width="28" height="2" x="106" y="22" fill="#9FA6B2" rx="1"/><g filter="url(#filter0_d)"><rect width="68" height="8" x="106" y="27" fill="#fff" rx="2"/><rect width="69" height="9" x="105.5" y="26.5" stroke="#000" stroke-opacity=".08" rx="2.5"/></g><rect width="28" height="2" x="106" y="40" fill="#9FA6B2" rx="1"/><g filter="url(#filter1_d)"><rect width="144" height="8" x="106" y="45" fill="#fff" rx="2"/><rect width="145" height="9" x="105.5" y="44.5" stroke="#000" stroke-opacity=".08" rx="2.5"/></g><rect width="28" height="2" x="106" y="58" fill="#9FA6B2" rx="1"/><g filter="url(#filter2_d)"><rect width="144" height="16" x="106" y="63" fill="#fff" rx="2"/><rect width="145" height="17" x="105.5" y="62.5" stroke="#000" stroke-opacity=".08" rx="2.5"/></g><rect width="31" height="2" x="182" y="22" fill="#9FA6B2" rx="1"/><g filter="url(#filter3_d)"><rect width="68" height="8" x="182" y="27" fill="#fff" rx="2"/><rect width="69" height="9" x="181.5" y="26.5" stroke="#000" stroke-opacity=".08" rx="2.5"/></g><rect width="220" height="1" x="30" y="14" fill="#D2D6DC"/><rect width="68" height="2" x="30" y="101" fill="#D2D6DC" rx="1"/><rect width="58" height="2" x="30" y="105" fill="#D2D6DC" rx="1"/><rect width="28" height="3" x="30" y="95" fill="#6B7280" rx="1.5"/><rect width="28" height="2" x="106" y="95" fill="#9FA6B2" rx="1"/><g filter="url(#filter4_d)"><rect width="68" height="8" x="106" y="100" fill="#fff" rx="2"/><rect width="69" height="9" x="105.5" y="99.5" stroke="#000" stroke-opacity=".08" rx="2.5"/></g><rect width="22" height="2" x="106" y="113" fill="#9FA6B2" rx="1"/><g filter="url(#filter5_d)"><rect width="144" height="8" x="106" y="118" fill="#fff" rx="2"/><rect width="145" height="9" x="105.5" y="117.5" stroke="#000" stroke-opacity=".08" rx="2.5"/></g><rect width="31" height="2" x="182" y="95" fill="#9FA6B2" rx="1"/><g filter="url(#filter6_d)"><rect width="68" height="8" x="182" y="100" fill="#fff" rx="2"/><rect width="69" height="9" x="181.5" y="99.5" stroke="#000" stroke-opacity=".08" rx="2.5"/></g><rect width="220" height="1" x="30" y="87" fill="#D2D6DC"/><defs><filter id="filter0_d" width="74" height="14" x="103" y="25" color-interpolation-filters="sRGB" filterUnits="userSpaceOnUse"><feFlood flood-opacity="0" result="BackgroundImageFix"/><feColorMatrix in="SourceAlpha" type="matrix" values="0 0 0 0 0 0 0 0 0 0 0 0 0 0 0 0 0 0 127 0"/><feOffset dy="1"/><feGaussianBlur stdDeviation="1"/><feColorMatrix type="matrix" values="0 0 0 0 0 0 0 0 0 0 0 0 0 0 0 0 0 0 0.04 0"/><feBlend in2="BackgroundImageFix" mode="normal" result="effect1_dropShadow"/><feBlend in="SourceGraphic" in2="effect1_dropShadow" mode="normal" result="shape"/></filter><filter id="filter1_d" width="150" height="14" x="103" y="43" color-interpolation-filters="sRGB" filterUnits="userSpaceOnUse"><feFlood flood-opacity="0" result="BackgroundImageFix"/><feColorMatrix in="SourceAlpha" type="matrix" values="0 0 0 0 0 0 0 0 0 0 0 0 0 0 0 0 0 0 127 0"/><feOffset dy="1"/><feGaussianBlur stdDeviation="1"/><feColorMatrix type="matrix" values="0 0 0 0 0 0 0 0 0 0 0 0 0 0 0 0 0 0 0.04 0"/><feBlend in2="BackgroundImageFix" mode="normal" result="effect1_dropShadow"/><feBlend in="SourceGraphic" in2="effect1_dropShadow" mode="normal" result="shape"/></filter><filter id="filter2_d" width="150" height="22" x="103" y="61" color-interpolation-filters="sRGB" filterUnits="userSpaceOnUse"><feFlood flood-opacity="0" result="BackgroundImageFix"/><feColorMatrix in="SourceAlpha" type="matrix" values="0 0 0 0 0 0 0 0 0 0 0 0 0 0 0 0 0 0 127 0"/><feOffset dy="1"/><feGaussianBlur stdDeviation="1"/><feColorMatrix type="matrix" values="0 0 0 0 0 0 0 0 0 0 0 0 0 0 0 0 0 0 0.04 0"/><feBlend in2="BackgroundImageFix" mode="normal" result="effect1_dropShadow"/><feBlend in="SourceGraphic" in2="effect1_dropShadow" mode="normal" result="shape"/></filter><filter id="filter3_d" width="74" height="14" x="179" y="25" color-interpolation-filters="sRGB" filterUnits="userSpaceOnUse"><feFlood flood-opacity="0" result="BackgroundImageFix"/><feColorMatrix in="SourceAlpha" type="matrix" values="0 0 0 0 0 0 0 0 0 0 0 0 0 0 0 0 0 0 127 0"/><feOffset dy="1"/><feGaussianBlur stdDeviation="1"/><feColorMatrix type="matrix" values="0 0 0 0 0 0 0 0 0 0 0 0 0 0 0 0 0 0 0.04 0"/><feBlend in2="BackgroundImageFix" mode="normal" result="effect1_dropShadow"/><feBlend in="SourceGraphic" in2="effect1_dropShadow" mode="normal" result="shape"/></filter><filter id="filter4_d" width="74" height="14" x="103" y="98" color-interpolation-filters="sRGB" filterUnits="userSpaceOnUse"><feFlood flood-opacity="0" result="BackgroundImageFix"/><feColorMatrix in="SourceAlpha" type="matrix" values="0 0 0 0 0 0 0 0 0 0 0 0 0 0 0 0 0 0 127 0"/><feOffset dy="1"/><feGaussianBlur stdDeviation="1"/><feColorMatrix type="matrix" values="0 0 0 0 0 0 0 0 0 0 0 0 0 0 0 0 0 0 0.04 0"/><feBlend in2="BackgroundImageFix" mode="normal" result="effect1_dropShadow"/><feBlend in="SourceGraphic" in2="effect1_dropShadow" mode="normal" result="shape"/></filter><filter id="filter5_d" width="150" height="14" x="103" y="116" color-interpolation-filters="sRGB" filterUnits="userSpaceOnUse"><feFlood flood-opacity="0" result="BackgroundImageFix"/><feColorMatrix in="SourceAlpha" type="matrix" values="0 0 0 0 0 0 0 0 0 0 0 0 0 0 0 0 0 0 127 0"/><feOffset dy="1"/><feGaussianBlur stdDeviation="1"/><feColorMatrix type="matrix" values="0 0 0 0 0 0 0 0 0 0 0 0 0 0 0 0 0 0 0.04 0"/><feBlend in2="BackgroundImageFix" mode="normal" result="effect1_dropShadow"/><feBlend in="SourceGraphic" in2="effect1_dropShadow" mode="normal" result="shape"/></filter><filter id="filter6_d" width="74" height="14" x="179" y="98" color-interpolation-filters="sRGB" filterUnits="userSpaceOnUse"><feFlood flood-opacity="0" result="BackgroundImageFix"/><feColorMatrix in="SourceAlpha" type="matrix" values="0 0 0 0 0 0 0 0 0 0 0 0 0 0 0 0 0 0 127 0"/><feOffset dy="1"/><feGaussianBlur stdDeviation="1"/><feColorMatrix type="matrix" values="0 0 0 0 0 0 0 0 0 0 0 0 0 0 0 0 0 0 0.04 0"/><feBlend in2="BackgroundImageFix" mode="normal" result="effect1_dropShadow"/><feBlend in="SourceGraphic" in2="effect1_dropShadow" mode="normal" result="shape"/></filter></defs></svg>