<svg xmlns="http://www.w3.org/2000/svg" width="280" height="140" fill="none" viewBox="0 0 280 140"><rect width="280" height="140" fill="#fff"/><rect width="280" height="140" fill="#F4F5F7"/><g filter="url(#filter0_dd)"><path fill="#fff" d="M38 44C38 41.7909 39.7909 40 42 40H238C240.209 40 242 41.7909 242 44V97C242 99.2091 240.209 101 238 101H42C39.7909 101 38 99.2091 38 97V44Z"/><path stroke="#000" stroke-opacity=".04" d="M238 39.5H42C39.5147 39.5 37.5 41.5147 37.5 44V97C37.5 99.4853 39.5147 101.5 42 101.5H238C240.485 101.5 242.5 99.4853 242.5 97V44C242.5 41.5147 240.485 39.5 238 39.5Z"/></g><path stroke="#9FA6B2" stroke-linecap="round" stroke-linejoin="round" d="M232 48L234 50L232 52"/><path stroke="#9FA6B2" stroke-linecap="round" stroke-linejoin="round" d="M232 68L234 70L232 72"/><path stroke="#9FA6B2" stroke-linecap="round" stroke-linejoin="round" d="M232 88L234 90L232 92"/><rect width="30" height="2" x="45" y="47" fill="#9FA6B2" rx="1"/><rect width="35" height="2" x="140" y="47" fill="#9FA6B2" rx="1"/><rect width="40" height="2" x="45" y="67" fill="#9FA6B2" rx="1"/><rect width="30" height="2" x="140" y="67" fill="#9FA6B2" rx="1"/><rect width="35" height="2" x="45" y="87" fill="#9FA6B2" rx="1"/><rect width="37" height="2" x="140" y="87" fill="#9FA6B2" rx="1"/><rect width="24" height="2" x="45" y="52" fill="#D2D6DC" rx="1"/><rect width="17" height="2" x="140" y="52" fill="#D2D6DC" rx="1"/><rect width="20" height="2" x="45" y="72" fill="#D2D6DC" rx="1"/><rect width="24" height="2" x="140" y="72" fill="#D2D6DC" rx="1"/><rect width="25" height="2" x="45" y="92" fill="#D2D6DC" rx="1"/><rect width="22" height="2" x="140" y="92" fill="#D2D6DC" rx="1"/><rect width="204" height="1" x="38" y="60" fill="#E5E7EB"/><rect width="204" height="1" x="38" y="80" fill="#E5E7EB"/><defs><filter id="filter0_dd" width="216" height="73" x="32" y="37" color-interpolation-filters="sRGB" filterUnits="userSpaceOnUse"><feFlood flood-opacity="0" result="BackgroundImageFix"/><feColorMatrix in="SourceAlpha" type="matrix" values="0 0 0 0 0 0 0 0 0 0 0 0 0 0 0 0 0 0 127 0"/><feOffset dy="3"/><feGaussianBlur stdDeviation="2.5"/><feColorMatrix type="matrix" values="0 0 0 0 0 0 0 0 0 0 0 0 0 0 0 0 0 0 0.04 0"/><feBlend in2="BackgroundImageFix" mode="normal" result="effect1_dropShadow"/><feColorMatrix in="SourceAlpha" type="matrix" values="0 0 0 0 0 0 0 0 0 0 0 0 0 0 0 0 0 0 127 0"/><feOffset dy="1"/><feGaussianBlur stdDeviation="1"/><feColorMatrix type="matrix" values="0 0 0 0 0 0 0 0 0 0 0 0 0 0 0 0 0 0 0.03 0"/><feBlend in2="effect1_dropShadow" mode="normal" result="effect2_dropShadow"/><feBlend in="SourceGraphic" in2="effect2_dropShadow" mode="normal" result="shape"/></filter></defs></svg>