<svg xmlns="http://www.w3.org/2000/svg" width="280" height="140" fill="none" viewBox="0 0 280 140"><rect width="280" height="140" fill="#fff"/><rect width="280" height="140" fill="#F4F5F7"/><g filter="url(#filter0_dd)"><path fill="#fff" d="M50 39C50 36.7909 51.7909 35 54 35H226C228.209 35 230 36.7909 230 39V102C230 104.209 228.209 106 226 106H54C51.7909 106 50 104.209 50 102V39Z"/><path stroke="#000" stroke-opacity=".04" d="M54 34.5C51.5147 34.5 49.5 36.5147 49.5 39V102C49.5 104.485 51.5147 106.5 54 106.5H226C228.485 106.5 230.5 104.485 230.5 102V39C230.5 36.5147 228.485 34.5 226 34.5H54Z"/></g><rect width="37" height="2" x="58" y="48" fill="#9FA6B2" rx="1"/><rect width="37" height="2" x="58" y="67" fill="#9FA6B2" rx="1"/><rect width="160" height="2" x="58" y="86" fill="#9FA6B2" rx="1"/><rect width="164" height="2" x="58" y="91" fill="#9FA6B2" rx="1"/><rect width="132" height="2" x="58" y="96" fill="#9FA6B2" rx="1"/><rect width="37" height="2" x="140" y="48" fill="#9FA6B2" rx="1"/><rect width="37" height="2" x="140" y="67" fill="#9FA6B2" rx="1"/><rect width="22" height="2" x="58" y="43" fill="#D2D6DC" rx="1"/><rect width="22" height="2" x="58" y="62" fill="#D2D6DC" rx="1"/><rect width="22" height="2" x="58" y="81" fill="#D2D6DC" rx="1"/><rect width="22" height="2" x="140" y="43" fill="#D2D6DC" rx="1"/><rect width="22" height="2" x="140" y="62" fill="#D2D6DC" rx="1"/><defs><filter id="filter0_dd" width="192" height="83" x="44" y="32" color-interpolation-filters="sRGB" filterUnits="userSpaceOnUse"><feFlood flood-opacity="0" result="BackgroundImageFix"/><feColorMatrix in="SourceAlpha" type="matrix" values="0 0 0 0 0 0 0 0 0 0 0 0 0 0 0 0 0 0 127 0"/><feOffset dy="3"/><feGaussianBlur stdDeviation="2.5"/><feColorMatrix type="matrix" values="0 0 0 0 0 0 0 0 0 0 0 0 0 0 0 0 0 0 0.04 0"/><feBlend in2="BackgroundImageFix" mode="normal" result="effect1_dropShadow"/><feColorMatrix in="SourceAlpha" type="matrix" values="0 0 0 0 0 0 0 0 0 0 0 0 0 0 0 0 0 0 127 0"/><feOffset dy="1"/><feGaussianBlur stdDeviation="1"/><feColorMatrix type="matrix" values="0 0 0 0 0 0 0 0 0 0 0 0 0 0 0 0 0 0 0.03 0"/><feBlend in2="effect1_dropShadow" mode="normal" result="effect2_dropShadow"/><feBlend in="SourceGraphic" in2="effect2_dropShadow" mode="normal" result="shape"/></filter></defs></svg>