<svg xmlns="http://www.w3.org/2000/svg" width="280" height="140" fill="none" viewBox="0 0 280 140"><rect width="280" height="140" fill="#fff"/><rect width="280" height="140" fill="#F4F5F7"/><g filter="url(#filter0_dd)"><path fill="#fff" d="M80 44C80 41.7909 81.7909 40 84 40H196C198.209 40 200 41.7909 200 44V97C200 99.2091 198.209 101 196 101H84C81.7909 101 80 99.2091 80 97V44Z"/><path stroke="#000" stroke-opacity=".04" d="M84 39.5C81.5147 39.5 79.5 41.5147 79.5 44V97C79.5 99.4853 81.5147 101.5 84 101.5H196C198.485 101.5 200.5 99.4853 200.5 97V44C200.5 41.5147 198.485 39.5 196 39.5H84Z"/></g><rect width="120" height="19" x="80" y="61" fill="#F4F5F7"/><rect width="36" height="2" x="100.8" y="47" fill="#9FA6B2" rx="1"/><rect width="48" height="2" x="100.8" y="67" fill="#9FA6B2" rx="1"/><rect width="42" height="2" x="100.8" y="87" fill="#9FA6B2" rx="1"/><rect width="28.8" height="2" x="100.8" y="52" fill="#D2D6DC" rx="1"/><rect width="24" height="2" x="100.8" y="72" fill="#D2D6DC" rx="1"/><rect width="30" height="2" x="100.8" y="92" fill="#D2D6DC" rx="1"/><rect width="120" height="1" x="80" y="60" fill="#E5E7EB"/><rect width="120" height="1" x="80" y="80" fill="#E5E7EB"/><circle cx="90" cy="50" r="3" fill="#D2D6DC"/><circle cx="90" cy="70" r="3" fill="#6B7280"/><circle cx="90" cy="90" r="3" fill="#D2D6DC"/><defs><filter id="filter0_dd" width="132" height="73" x="74" y="37" color-interpolation-filters="sRGB" filterUnits="userSpaceOnUse"><feFlood flood-opacity="0" result="BackgroundImageFix"/><feColorMatrix in="SourceAlpha" type="matrix" values="0 0 0 0 0 0 0 0 0 0 0 0 0 0 0 0 0 0 127 0"/><feOffset dy="3"/><feGaussianBlur stdDeviation="2.5"/><feColorMatrix type="matrix" values="0 0 0 0 0 0 0 0 0 0 0 0 0 0 0 0 0 0 0.04 0"/><feBlend in2="BackgroundImageFix" mode="normal" result="effect1_dropShadow"/><feColorMatrix in="SourceAlpha" type="matrix" values="0 0 0 0 0 0 0 0 0 0 0 0 0 0 0 0 0 0 127 0"/><feOffset dy="1"/><feGaussianBlur stdDeviation="1"/><feColorMatrix type="matrix" values="0 0 0 0 0 0 0 0 0 0 0 0 0 0 0 0 0 0 0.03 0"/><feBlend in2="effect1_dropShadow" mode="normal" result="effect2_dropShadow"/><feBlend in="SourceGraphic" in2="effect2_dropShadow" mode="normal" result="shape"/></filter></defs></svg>