<svg xmlns="http://www.w3.org/2000/svg" width="280" height="140" fill="none" viewBox="0 0 280 140"><rect width="280" height="140" fill="#fff"/><rect width="280" height="140" fill="#F4F5F7"/><g filter="url(#filter0_dd)"><path fill="#fff" d="M16 30C16 27.7909 17.7909 26 20 26H260C262.209 26 264 27.7909 264 30V110C264 112.209 262.209 114 260 114H20C17.7909 114 16 112.209 16 110V30Z"/><path stroke="#000" stroke-opacity=".04" d="M260 25.5H20C17.5147 25.5 15.5 27.5147 15.5 30V110C15.5 112.485 17.5147 114.5 20 114.5H260C262.485 114.5 264.5 112.485 264.5 110V30C264.5 27.5147 262.485 25.5 260 25.5Z"/></g><path fill="#F9FAFB" d="M16 30C16 27.7909 17.7909 26 20 26H260C262.209 26 264 27.7909 264 30V37H16V30Z"/><rect width="23" height="2" x="22" y="42" fill="#9FA6B2" rx="1"/><rect width="23" height="2" x="22" y="30" fill="#D2D6DC" rx="1"/><rect width="29" height="2" x="22" y="55" fill="#9FA6B2" rx="1"/><rect width="27" height="2" x="22" y="68" fill="#9FA6B2" rx="1"/><rect width="23" height="2" x="22" y="81" fill="#9FA6B2" rx="1"/><rect width="20" height="2" x="86" y="42" fill="#9FA6B2" rx="1"/><rect width="20" height="2" x="86" y="30" fill="#D2D6DC" rx="1"/><rect width="28" height="2" x="86" y="55" fill="#9FA6B2" rx="1"/><rect width="18" height="2" x="86" y="68" fill="#9FA6B2" rx="1"/><rect width="25" height="2" x="86" y="81" fill="#9FA6B2" rx="1"/><rect width="21" height="2" x="156" y="42" fill="#9FA6B2" rx="1"/><rect width="21" height="2" x="156" y="30" fill="#D2D6DC" rx="1"/><rect width="27" height="2" x="156" y="55" fill="#9FA6B2" rx="1"/><rect width="21" height="2" x="156" y="68" fill="#9FA6B2" rx="1"/><rect width="24" height="2" x="156" y="81" fill="#9FA6B2" rx="1"/><rect width="23" height="2" x="219" y="42" fill="#9FA6B2" rx="1"/><rect width="23" height="2" x="219" y="30" fill="#D2D6DC" rx="1"/><rect width="26" height="2" x="219" y="55" fill="#9FA6B2" rx="1"/><rect width="27" height="2" x="219" y="68" fill="#9FA6B2" rx="1"/><rect width="23" height="2" x="219" y="81" fill="#9FA6B2" rx="1"/><rect width="248" height="1" x="16" y="49" fill="#E5E7EB"/><rect width="248" height="1" x="16" y="36" fill="#D2D6DC"/><rect width="248" height="1" x="16" y="62" fill="#E5E7EB"/><rect width="248" height="1" x="16" y="75" fill="#E5E7EB"/><rect width="31" height="2" x="22" y="94" fill="#9FA6B2" rx="1"/><rect width="22" height="2" x="86" y="94" fill="#9FA6B2" rx="1"/><rect width="27" height="2" x="156" y="94" fill="#9FA6B2" rx="1"/><rect width="20" height="2" x="219" y="94" fill="#9FA6B2" rx="1"/><rect width="248" height="1" x="16" y="88" fill="#E5E7EB"/><rect width="26" height="2" x="22" y="107" fill="#9FA6B2" rx="1"/><rect width="25" height="2" x="86" y="107" fill="#9FA6B2" rx="1"/><rect width="20" height="2" x="156" y="107" fill="#9FA6B2" rx="1"/><rect width="23" height="2" x="219" y="107" fill="#9FA6B2" rx="1"/><rect width="248" height="1" x="16" y="101" fill="#E5E7EB"/><defs><filter id="filter0_dd" width="260" height="100" x="10" y="23" color-interpolation-filters="sRGB" filterUnits="userSpaceOnUse"><feFlood flood-opacity="0" result="BackgroundImageFix"/><feColorMatrix in="SourceAlpha" type="matrix" values="0 0 0 0 0 0 0 0 0 0 0 0 0 0 0 0 0 0 127 0"/><feOffset dy="3"/><feGaussianBlur stdDeviation="2.5"/><feColorMatrix type="matrix" values="0 0 0 0 0 0 0 0 0 0 0 0 0 0 0 0 0 0 0.04 0"/><feBlend in2="BackgroundImageFix" mode="normal" result="effect1_dropShadow"/><feColorMatrix in="SourceAlpha" type="matrix" values="0 0 0 0 0 0 0 0 0 0 0 0 0 0 0 0 0 0 127 0"/><feOffset dy="1"/><feGaussianBlur stdDeviation="1"/><feColorMatrix type="matrix" values="0 0 0 0 0 0 0 0 0 0 0 0 0 0 0 0 0 0 0.03 0"/><feBlend in2="effect1_dropShadow" mode="normal" result="effect2_dropShadow"/><feBlend in="SourceGraphic" in2="effect2_dropShadow" mode="normal" result="shape"/></filter></defs></svg>